<svg width="21" height="28" viewBox="0 0 21 28" fill="none" xmlns="http://www.w3.org/2000/svg">
<g clip-path="url(#clip0_1_1699)">
<path d="M13.5387 21.4367C13.3905 21.5849 13.2145 21.7026 13.0208 21.7828C12.8272 21.8631 12.6196 21.9044 12.41 21.9044C12.2003 21.9044 11.9927 21.8631 11.7991 21.7828C11.6054 21.7026 11.4294 21.5849 11.2812 21.4367L2.09928 12.2562C0.774981 10.9048 0.0374795 9.08549 0.0470354 7.19347C0.0565913 5.30144 0.812433 3.48964 2.15031 2.15176C3.48819 0.813879 5.3 0.0580371 7.19202 0.0484812C9.08404 0.0389252 10.9034 0.776427 12.2547 2.10072L18.0578 7.90383C18.3564 8.20395 18.5235 8.61039 18.5225 9.03374C18.5214 9.45709 18.3521 9.86266 18.052 10.1612C17.7519 10.4598 17.3455 10.627 16.9221 10.6259C16.4988 10.6248 16.0932 10.4556 15.7946 10.1554L9.99876 4.35233C9.25 3.60357 8.23446 3.18292 7.17555 3.18292C6.11664 3.18292 5.1011 3.60357 4.35234 4.35233C3.60357 5.10109 3.18292 6.11663 3.18292 7.17554C3.18292 8.23445 3.60357 9.24999 4.35234 9.99876L13.5343 19.1807C13.8339 19.4794 14.0026 19.8848 14.0034 20.3078C14.0043 20.7308 13.8371 21.1369 13.5387 21.4367Z" fill="#33B938"/>
<path d="M18.0017 25.8993C16.6538 27.2437 14.8278 27.9988 12.924 27.9988C11.0202 27.9988 9.19414 27.2437 7.84627 25.8993L2.05041 20.0962C1.88958 19.9511 1.75996 19.7748 1.66947 19.578C1.57897 19.3812 1.52948 19.168 1.52401 18.9515C1.51855 18.7349 1.55723 18.5195 1.63768 18.3184C1.71814 18.1173 1.8387 17.9347 1.99201 17.7817C2.14532 17.6287 2.32818 17.5085 2.52945 17.4284C2.73071 17.3483 2.94617 17.3101 3.1627 17.3159C3.37923 17.3218 3.59229 17.3717 3.78891 17.4626C3.98553 17.5535 4.16159 17.6834 4.30637 17.8446L10.1022 23.6477C10.8521 24.3876 11.8642 24.8009 12.9177 24.7973C13.9712 24.7938 14.9805 24.3737 15.7255 23.6288C16.4704 22.8839 16.8904 21.8746 16.894 20.8211C16.8975 19.7676 16.4842 18.7555 15.7443 18.0056L6.56233 8.81927C6.26298 8.51992 6.09481 8.11391 6.09481 7.69056C6.09481 7.26722 6.26298 6.86121 6.56233 6.56186C6.86168 6.26251 7.26769 6.09433 7.69104 6.09433C8.11438 6.09433 8.52039 6.26251 8.81974 6.56186L18.0017 15.7438C19.3465 17.0915 20.1018 18.9177 20.1018 20.8215C20.1018 22.7254 19.3465 24.5516 18.0017 25.8993Z" fill="#33B938"/>
</g>
<defs>
<clipPath id="clip0_1_1699">
<rect width="20.1005" height="28" fill="white"/>
</clipPath>
</defs>
</svg>
